<?xml version="1.0" encoding="UTF-8"?>
<!DOCTYPE svg PUBLIC "-//W3C//DTD SVG 1.1//EN" "http://www.w3.org/Graphics/SVG/1.1/DTD/svg11.dtd">
<!-- Creator: CorelDRAW -->
<svg xmlns="http://www.w3.org/2000/svg" xml:space="preserve" width="0.998992in" height="0.833331in" version="1.1" style="shape-rendering:geometricPrecision; text-rendering:geometricPrecision; image-rendering:optimizeQuality; fill-rule:evenodd; clip-rule:evenodd"
viewBox="0 0 998.99 833.33"
 xmlns:xlink="http://www.w3.org/1999/xlink"
 xmlns:xodm="http://www.corel.com/coreldraw/odm/2003">
 <defs>
  <style type="text/css">
   <![CDATA[
    .fil3 {fill:#00357C}
    .fil2 {fill:#00A9A4}
    .fil0 {fill:white}
    .fil1 {fill:#00357C;fill-rule:nonzero}
    .fil4 {fill:#00B3A1;fill-rule:nonzero}
   ]]>
  </style>
 </defs>
 <g id="Layer_x0020_1">
  <metadata id="CorelCorpID_0Corel-Layer"/>
  <rect class="fil0" x="-282.26" width="1562.5" height="833.33" rx="81.46" ry="52.08"/>
  <g id="_1452156393824">
   <path class="fil1" d="M51.58 713.57c0,-22.72 6.04,-40.24 18.07,-52.56 10.47,-10.71 23.77,-16.08 39.94,-16.08 21.66,0 37.47,7.18 47.49,21.54 5.52,8.06 8.51,16.14 8.9,24.26l-26.97 0c-1.72,-6.24 -3.95,-10.95 -6.67,-14.15 -4.86,-5.64 -12.04,-8.48 -21.54,-8.48 -9.71,0 -17.35,3.98 -22.96,11.98 -5.58,7.96 -8.39,19.28 -8.39,33.88 0,14.6 2.96,25.56 8.84,32.83 5.91,7.27 13.39,10.92 22.48,10.92 9.32,0 16.44,-3.11 21.33,-9.35 2.71,-3.35 4.95,-8.39 6.73,-15.09l26.97 0c-2.32,14.18 -8.27,25.74 -17.86,34.64 -9.56,8.9 -21.84,13.33 -36.81,13.33 -18.52,0 -33.07,-6 -43.66,-18.01 -10.59,-12.07 -15.9,-28.63 -15.9,-49.66zm606.28 35.64c7.72,0 13.91,-2.46 18.76,-8.54 6.13,-7.69 7.56,-18.89 7.56,-28.39 0,-1.89 -0.06,-3.83 -0.19,-5.8l-17.63 0 0 0.38c0,1.95 -0.83,3.75 -2.16,5.08 -1.5,1.5 -3.63,2.43 -6.02,2.43 -2.39,0 -4.52,-0.93 -6.02,-2.43 -1.33,-1.33 -2.16,-3.13 -2.16,-5.08l0 -0.38 -18.5 0c-0.14,1.97 -0.2,3.92 -0.2,5.8 0,9.53 1.47,20.68 7.67,28.34 4.92,6.08 11.12,8.59 18.89,8.59zm25.63 -47.46c-0.93,-6.47 -2.93,-12.86 -6.87,-17.82 -4.28,-5.37 -9.58,-7.96 -16.08,-8.49l0 12c1.42,0.39 2.67,1.13 3.66,2.11 1.33,1.33 2.16,3.13 2.16,5.08l0 7.12 17.13 0zm-27.67 -26.36c-6.82,0.42 -12.37,3 -16.85,8.54 -4,4.95 -6.03,11.35 -6.97,17.83l18 0 0 -7.12c0,-1.95 0.83,-3.75 2.16,-5.08 0.98,-0.98 2.24,-1.72 3.66,-2.11l0 -12.04zm75.57 39.78l49.24 0 0 23.9 -49.24 0 0 -23.9zm94.68 62.45l-26.97 0 0 -130.33 26.97 0 0 130.33zm120.35 -130.33l0 22.99 -39.1 0 0 107.34 -27.33 0 0 -107.34 -39.1 0 0 -22.99 105.54 0zm-722.98 81.1l33.31 0 -16.41 -51.29 -16.9 51.29zm1.84 -81.1l30.77 0 45.92 130.33 -29.51 0 -8.57 -26.79 -47.85 0 -8.84 26.79 -28.36 0 46.43 -130.33zm179.96 0l39.04 0 0 130.33 -25.16 0 0 -88.16c0,-2.53 0.03,-6.09 0.09,-10.65 0.06,-4.59 0.09,-8.08 0.09,-10.56l-24.8 109.37 -26.61 0 -24.62 -109.37c0,2.48 0.03,5.97 0.09,10.56 0.06,4.56 0.09,8.12 0.09,10.65l0 88.16 -25.16 0 0 -130.33 39.46 0 23.84 102.49 23.65 -102.49zm90.81 22.45l0 28.96 31.65 0c5.64,0 10.23,-1.09 13.76,-3.26 3.53,-2.17 5.28,-6 5.28,-11.53 0,-6.12 -2.32,-10.17 -7,-12.13 -4.01,-1.36 -9.14,-2.05 -15.39,-2.05l-28.3 0zm0 50.5l0 34.94 31.53 0c5.64,0 10.02,-0.78 13.15,-2.32 5.7,-2.84 8.54,-8.3 8.54,-16.35 0,-6.82 -2.75,-11.49 -8.27,-14.03 -3.07,-1.45 -7.42,-2.17 -12.97,-2.23l-31.98 0zm36.84 -72.95c15.9,0.24 27.15,4.86 33.76,13.88 3.98,5.55 5.97,12.19 5.97,19.91 0,7.96 -2.02,14.36 -6.03,19.19 -2.26,2.71 -5.55,5.19 -9.96,7.42 6.67,2.44 11.67,6.28 15.08,11.5 3.38,5.25 5.07,11.61 5.07,19.1 0,7.72 -1.93,14.66 -5.8,20.78 -2.47,4.07 -5.55,7.48 -9.23,10.26 -4.17,3.17 -9.05,5.34 -14.7,6.52 -5.67,1.18 -11.8,1.78 -18.4,1.78l-58.68 0 0 -130.33 62.91 0zm124.96 110.97c10.86,0 19.46,-3.98 25.83,-11.95 6.37,-8 9.53,-19.34 9.53,-34.03 0,-14.67 -3.17,-25.98 -9.53,-33.97 -4.8,-6.02 -10.87,-9.79 -18.21,-11.28 0.16,-3.74 0.4,-7.41 0.72,-11 0.37,-4.1 0.86,-8.17 1.49,-12.2 13.84,1.53 24.77,6.43 32.8,14.69 13.13,11.98 19.7,29.9 19.7,53.76 0,23.41 -6.57,41.33 -19.7,53.76 -9.87,10.14 -24.07,15.2 -42.69,15.2 -18.65,0 -32.86,-5.07 -42.72,-15.2 -13.19,-12.43 -19.8,-30.35 -19.8,-53.76 0,-23.87 6.61,-41.79 19.8,-53.76 9.09,-9.34 21.86,-14.37 38.4,-15.11 -0.54,3.68 -0.98,7.46 -1.33,11.35 -0.36,3.96 -0.61,7.98 -0.78,12.06 -7.85,1.32 -14.31,5.13 -19.43,11.43 -6.46,7.99 -9.69,19.34 -9.69,34.03 0,14.69 3.23,26.04 9.69,34.03 6.46,7.96 15.09,11.95 25.92,11.95z"/>
   <path class="fil2" d="M274.72 451.2l274.48 0c2.28,0 4.23,1.31 5.1,3.42l33.96 82.4c0.26,0.64 0.39,1.23 0.41,1.93l0.36 11.44c0.05,1.55 -0.47,2.9 -1.55,4.01 -1.08,1.11 -2.41,1.68 -3.96,1.68l-308.87 0 88.65 -4.24 216.81 -1.94 0.59 -11.95 -330.05 0c-1.81,0 -3.38,-0.79 -4.45,-2.26 -1.07,-1.46 -1.35,-3.19 -0.81,-4.93l24.04 -75.71c0.74,-2.33 2.81,-3.85 5.26,-3.85zm4.22 8.53l-3.44 11.22 15.66 0 2.84 -11.22 -15.06 0zm-5 16.28l-3.85 12.53 16.6 0.01 3.18 -12.54 -15.93 0zm-5.39 17.57l-3.87 12.58 17.54 0.01 3.19 -12.59 -16.87 -0.01zm-5.41 17.62l-4.31 14.04 18.56 0 3.56 -14.04 -17.81 -0.01zm19.46 14.04l18.78 0 2.93 -14.02 -18.16 -0.01 -3.56 14.03zm23.94 0l218.41 0 -3.79 -13.91 -211.69 -0.11 -2.93 14.02zm223.65 0l19.13 0 -5.02 -13.91 -17.9 -0.01 3.78 13.91zm24.49 0l17.18 0 -5.45 -13.89 -16.75 -0.01 5.02 13.9zm9.75 -18.93l-4.94 -12.59 -16.2 -0.01 4.55 12.59 16.59 0.01zm-6.91 -17.63l-4.97 -12.67 -15.65 0 4.57 12.66 16.04 0.01zm-6.95 -17.73l-4.4 -11.22 -15.15 0 4.05 11.22 15.49 0zm-24.9 -11.22l-14.85 0 3.03 11.22 15.87 0 -4.05 -11.22zm-20.09 0l-16.46 0 2.66 11.22 16.83 0 -3.03 -11.22zm-21.65 0l-16.19 0 2.13 11.22 16.71 0 -2.65 -11.22zm-21.32 0l-15.73 0 1.41 11.22 16.45 0 -2.13 -11.22zm-20.82 0l-15.87 0 0.7 11.22 16.57 0 -1.41 -11.22zm-20.93 0l-15.65 0 0.03 11.22 16.33 0 -0.7 -11.22zm-20.69 0l-16.56 0 -0.29 11.22 16.87 0 -0.03 -11.22zm-21.6 0l-15.89 0 -1.07 11.22 16.68 0 0.29 -11.22zm-20.96 0l-16.14 0 -1.52 11.22 16.59 0 1.07 -11.22zm-21.23 0l-16.14 0 -2.35 11.22 16.96 0 1.52 -11.22zm-21.3 0l-15.87 0 -2.84 11.22 16.37 0 2.34 -11.22zm46.04 16.28l-1.2 12.57 17.91 0.01 0.32 -12.58 -17.04 0zm-1.68 17.61l-1.2 12.59 19.14 0.01 0.32 -12.58 -18.26 -0.01zm-6.26 12.58l1.2 -12.58 -17.51 -0.01 -1.7 12.58 18.02 0.01zm1.68 -17.62l1.2 -12.57 -16.8 0 -1.7 12.56 17.31 0.01zm50.39 -12.57l0.03 12.59 17.4 0.01 -0.8 -12.6 -16.63 0zm0.04 17.63l0.03 12.59 18.47 0.01 -0.8 -12.59 -17.7 -0.01zm-5.01 12.58l-0.03 -12.58 -17.5 -0.01 -0.32 12.59 17.85 0.01zm-0.04 -17.62l-0.03 -12.59 -17.02 0 -0.32 12.58 17.37 0.01zm-108.33 -0.06l17.15 0.01 2.63 -12.55 -16.6 0 -3.18 12.54zm22.31 0.01l18.25 0.01 1.7 -12.56 -17.33 0 -2.62 12.55zm113.52 0.06l17.68 0.01 -1.58 -12.61 -16.89 0 0.79 12.61zm22.78 0.01l17.59 0.01 -2.4 -12.63 -16.78 0 1.59 12.62zm22.73 0.01l17.54 0.01 -2.99 -12.64 -16.94 0 2.4 12.63zm22.73 0.01l40.15 0.02 -4.57 -12.66 -38.57 0 2.99 12.64zm41.97 5.06l-16.33 -0.01 3.43 12.59 17.45 0.01 -4.54 -12.59zm-21.57 -0.01l-19.2 -0.01 2.98 12.59 19.65 0.01 -3.43 -12.59zm-24.4 -0.01l-17.77 -0.01 2.39 12.59 18.36 0.01 -2.98 -12.59zm-22.91 -0.01l-17.92 -0.01 1.58 12.59 18.73 0.01 -2.39 -12.59zm-23.02 -0.01l-17.99 -0.01 0.79 12.59 18.78 0.01 -1.58 -12.59zm-114.27 -0.06l-18.62 -0.01 -2.63 12.58 19.54 0.01 1.71 -12.59zm-23.78 -0.01l-17.38 -0.01 -3.19 12.58 17.93 0.01 2.63 -12.58z"/>
   <path class="fil2" d="M458.2 137.59l217.21 -84.73c2.35,-0.92 4.65,-1.02 7.07,-0.32l114.54 33.07c3.6,1.04 5.98,4.21 5.98,7.96l-0.28 306.81c12.04,0 25.94,1.24 39.08,4.19 12.17,2.72 23.73,6.91 32.64,12.93 9.24,6.25 15.7,14.46 17.23,25.04 0.61,4.17 0.43,8.7 -0.67,13.59 -9.01,40.26 -52.35,55.07 -106.61,73.62 -11.92,4.07 -24.38,8.33 -36.83,12.97 -36.99,13.79 -58.45,31.69 -70.71,53.67 -12.3,22.06 -15.48,48.44 -15.84,79l-5.64 -0.07c0.37,-31.4 3.69,-58.61 16.55,-81.67 12.91,-23.14 35.28,-41.91 73.67,-56.21 12.87,-4.8 25.19,-9.01 36.98,-13.04 52.59,-17.98 94.61,-32.34 102.92,-69.48 0.94,-4.19 1.09,-8.05 0.58,-11.59 -1.28,-8.81 -6.83,-15.76 -14.8,-21.15 -8.31,-5.61 -19.19,-9.54 -30.69,-12.12 -12.75,-2.85 -26.23,-4.05 -37.87,-4.05l-0.04 46.35c-0,3.78 -2.44,6.97 -6.07,7.97l-111.8 30.88c-3.27,0.9 -6.46,0.36 -9.24,-1.58l-88.97 -61.91 78.61 30.07 0.31 -381.16 -207.31 60.94zm243.79 15l78.26 7.97 -0.36 16.3 -78.09 4.25 0.2 -28.52zm4.61 80.43l65.66 5.14 0 4.88 -0.02 0.19 -65.65 -5.13 0 -5.07zm0 101.19l65.66 -0.18 0 5.04 -65.66 0.17 0 -5.04zm0 -14.1l65.66 -0.17 0 5.04 -65.66 0.17 0 -5.04zm0 -14.33l65.66 0.7 0 5.04 -65.66 -0.7 0 -5.04zm0 -14.28l65.66 1.84 0 5.04 -65.66 -1.84 0 -5.04zm0 -14.55l65.66 2.71 0 5.05 -65.66 -2.71 0 -5.05zm0 -14.99l65.66 3.54 0 5.05 -65.66 -3.54 0 -5.05zm0 -15l65.66 5.14 0 5.07 -65.66 -5.14 0 -5.07zm34.58 140.98c4.85,0 8.77,3.93 8.77,8.77 0,4.85 -3.93,8.77 -8.77,8.77 -4.85,0 -8.77,-3.93 -8.77,-8.77 0,-4.84 3.93,-8.77 8.77,-8.77z"/>
   <path class="fil2" d="M241.78 165.69l354.09 0c4.56,0 8.28,3.72 8.28,8.28l0 191.41c0,4.56 -3.72,8.28 -8.28,8.28l-162.24 0 0 7.88c36.02,1.99 63.24,11.09 63.24,22.02 0,12.39 -34.94,22.43 -78.04,22.43 -43.1,0 -78.04,-10.04 -78.04,-22.43 0,-10.93 27.22,-20.03 63.24,-22.02l0 -7.88 -162.24 0c-4.56,0 -8.28,-3.72 -8.28,-8.28l0 -191.41c0,-4.56 3.72,-8.28 8.28,-8.28zm2.62 11.18l348.84 0 0 174.98 -348.84 0 0 -174.98z"/>
   <rect class="fil3" x="655.53" y="691.99" width="5.29" height="17.51" rx="27.59" ry="24.21"/>
   <path id="Windows_logo_-_2012.svg" class="fil4" d="M381.19 237.3l30.76 -4.19 0.02 29.67 -30.74 0.17 -0.03 -25.65zm30.74 28.9l0.02 29.69 -30.74 -4.22 -0 -25.67 30.72 0.2zm3.73 -33.63l40.78 -5.95 0 35.79 -40.78 0.32 0 -30.16zm40.79 33.91l-0.01 35.63 -40.78 -5.76 -0.06 -29.94 40.85 0.07z"/>
  </g>
 </g>
</svg>
